<mxGraphModel dx="1076" dy="727" grid="1" gridSize="10" guides="1" tooltips="1" connect="1" arrows="1" fold="1" page="1" pageScale="1" pageWidth="850" pageHeight="1100" math="0" shadow="0">
  <root>
    <mxCell id="0" />
    <mxCell id="1" parent="0" />
    <mxCell id="2" value="เริ่มต้น" style="ellipse;whiteSpace=wrap;html=1;fillColor=#dae8fc;strokeColor=#6c8ebf;" vertex="1" parent="1">
      <mxGeometry x="360" y="20" width="100" height="50" as="geometry" />
    </mxCell>
    <mxCell id="3" value="ประกาศตัวแปร:&lt;br&gt;employee_id, working_hours,&lt;br&gt;salary_per_hour, total_salary" style="rounded=0;whiteSpace=wrap;html=1;fillColor=#d5e8d4;strokeColor=#82b366;" vertex="1" parent="1">
      <mxGeometry x="320" y="100" width="180" height="60" as="geometry" />
    </mxCell>
    <mxCell id="4" value="แสดงข้อความ &quot;Input the Employees ID...&quot;&lt;br&gt;และรับค่า employee_id" style="shape=parallelogram;perimeter=parallelogramPerimeter;whiteSpace=wrap;html=1;fixedSize=1;fillColor=#fff2cc;strokeColor=#d6b656;" vertex="1" parent="1">
      <mxGeometry x="295" y="190" width="230" height="60" as="geometry" />
    </mxCell>
    <mxCell id="5" value="แสดงข้อความ &quot;Input the working hrs:&quot;" style="shape=parallelogram;perimeter=parallelogramPerimeter;whiteSpace=wrap;html=1;fixedSize=1;fillColor=#fff2cc;strokeColor=#d6b656;" vertex="1" parent="1">
      <mxGeometry x="305" y="280" width="210" height="50" as="geometry" />
    </mxCell>
    <mxCell id="6" value="รับค่า working_hours&lt;br&gt;และตรวจสอบ: &lt;br&gt;scanf != 1 ?" style="rhombus;whiteSpace=wrap;html=1;fillColor=#f8cecc;strokeColor=#b85450;" vertex="1" parent="1">
      <mxGeometry x="340" y="370" width="140" height="100" as="geometry" />
    </mxCell>
    <mxCell id="7" value="แสดง Error: Invalid input for working hours." style="shape=parallelogram;perimeter=parallelogramPerimeter;whiteSpace=wrap;html=1;fixedSize=1;fillColor=#fff2cc;strokeColor=#d6b656;" vertex="1" parent="1">
      <mxGeometry x="100" y="395" width="200" height="50" as="geometry" />
    </mxCell>
    <mxCell id="8" value="คืนค่า 1 (Return 1)" style="rounded=0;whiteSpace=wrap;html=1;fillColor=#d5e8d4;strokeColor=#82b366;" vertex="1" parent="1">
      <mxGeometry x="135" y="520" width="130" height="50" as="geometry" />
    </mxCell>
    <mxCell id="9" value="แสดงข้อความ &quot;Salary amount/hr:&quot;" style="shape=parallelogram;perimeter=parallelogramPerimeter;whiteSpace=wrap;html=1;fixedSize=1;fillColor=#fff2cc;strokeColor=#d6b656;" vertex="1" parent="1">
      <mxGeometry x="305" y="520" width="210" height="50" as="geometry" />
    </mxCell>
    <mxCell id="10" value="รับค่า salary_per_hour&lt;br&gt;และตรวจสอบ: &lt;br&gt;scanf != 1 ?" style="rhombus;whiteSpace=wrap;html=1;fillColor=#f8cecc;strokeColor=#b85450;" vertex="1" parent="1">
      <mxGeometry x="340" y="610" width="140" height="100" as="geometry" />
    </mxCell>
    <mxCell id="11" value="แสดง Error: Invalid input for salary per hour." style="shape=parallelogram;perimeter=parallelogramPerimeter;whiteSpace=wrap;html=1;fixedSize=1;fillColor=#fff2cc;strokeColor=#d6b656;" vertex="1" parent="1">
      <mxGeometry x="100" y="635" width="200" height="50" as="geometry" />
    </mxCell>
    <mxCell id="12" value="คืนค่า 1 (Return 1)" style="rounded=0;whiteSpace=wrap;html=1;fillColor=#d5e8d4;strokeColor=#82b366;" vertex="1" parent="1">
      <mxGeometry x="135" y="760" width="130" height="50" as="geometry" />
    </mxCell>
    <mxCell id="13" value="คำนวณ:&lt;br&gt;total_salary = working_hours * salary_per_hour" style="rounded=0;whiteSpace=wrap;html=1;fillColor=#d5e8d4;strokeColor=#82b366;" vertex="1" parent="1">
      <mxGeometry x="305" y="760" width="210" height="60" as="geometry" />
    </mxCell>
    <mxCell id="14" value="แสดงผลลัพธ์:&lt;br&gt;Employees ID = ...&lt;br&gt;Salary = U$ ... (%.2f)" style="shape=parallelogram;perimeter=parallelogramPerimeter;whiteSpace=wrap;html=1;fixedSize=1;fillColor=#fff2cc;strokeColor=#d6b656;" vertex="1" parent="1">
      <mxGeometry x="305" y="860" width="210" height="60" as="geometry" />
    </mxCell>
    <mxCell id="15" value="คืนค่า 0 (Return 0)" style="rounded=0;whiteSpace=wrap;html=1;fillColor=#d5e8d4;strokeColor=#82b366;" vertex="1" parent="1">
      <mxGeometry x="345" y="960" width="130" height="50" as="geometry" />
    </mxCell>
    <mxCell id="16" value="สิ้นสุด" style="ellipse;whiteSpace=wrap;html=1;fillColor=#dae8fc;strokeColor=#6c8ebf;" vertex="1" parent="1">
      <mxGeometry x="360" y="1050" width="100" height="50" as="geometry" />
    </mxCell>
    <mxCell id="17" value="" style="endArrow=classic;html=1;" edge="1" parent="1" source="2" target="3">
      <mxGeometry width="50" height="50" relative="1" as="geometry">
        <mxPoint x="410" y="70" as="sourcePoint" />
        <mxPoint x="410" y="100" as="targetPoint" />
      </mxGeometry>
    </mxCell>
    <mxCell id="18" value="" style="endArrow=classic;html=1;" edge="1" parent="1" source="3" target="4">
      <mxGeometry width="50" height="50" relative="1" as="geometry">
        <mxPoint x="410" y="160" as="sourcePoint" />
        <mxPoint x="410" y="190" as="targetPoint" />
      </mxGeometry>
    </mxCell>
    <mxCell id="19" value="" style="endArrow=classic;html=1;" edge="1" parent="1" source="4" target="5">
      <mxGeometry width="50" height="50" relative="1" as="geometry">
        <mxPoint x="410" y="250" as="sourcePoint" />
        <mxPoint x="410" y="280" as="targetPoint" />
      </mxGeometry>
    </mxCell>
    <mxCell id="20" value="" style="endArrow=classic;html=1;" edge="1" parent="1" source="5" target="6">
      <mxGeometry width="50" height="50" relative="1" as="geometry">
        <mxPoint x="410" y="330" as="sourcePoint" />
        <mxPoint x="410" y="370" as="targetPoint" />
      </mxGeometry>
    </mxCell>
    <mxCell id="21" value="จริง" style="edgeStyle=orthogonalEdgeStyle;html=1;align=center;verticalAlign=bottom;endArrow=classic;" edge="1" parent="1" source="6" target="7">
      <mxGeometry relative="1" as="geometry">
        <mxPoint x="340" y="420" as="sourcePoint" />
        <Array as="points">
          <mxPoint x="320" y="420" />
          <mxPoint x="320" y="420" />
        </Array>
      </mxGeometry>
    </mxCell>
    <mxCell id="22" value="" style="endArrow=classic;html=1;" edge="1" parent="1" source="7" target="8">
      <mxGeometry width="50" height="50" relative="1" as="geometry">
        <mxPoint x="200" y="445" as="sourcePoint" />
        <mxPoint x="200" y="520" as="targetPoint" />
      </mxGeometry>
    </mxCell>
    <mxCell id="23" value="" style="endArrow=classic;html=1;entryDx=0;entryDy=0;entryPerimeter=0;" edge="1" parent="1" source="8" target="16">
      <mxGeometry width="50" height="50" relative="1" as="geometry">
        <mxPoint x="200" y="570" as="sourcePoint" />
        <mxPoint x="410" y="1050" as="targetPoint" />
        <Array as="points">
          <mxPoint x="200" y="1030" />
          <mxPoint x="410" y="1030" />
        </Array>
      </mxGeometry>
    </mxCell>
    <mxCell id="24" value="เท็จ" style="endArrow=classic;html=1;align=center;verticalAlign=bottom;entryDx=0;entryDy=0;entryPerimeter=0;" edge="1" parent="1" source="6" target="9">
      <mxGeometry relative="1" as="geometry">
        <mxPoint x="410" y="470" as="sourcePoint" />
        <mxPoint x="410" y="520" as="targetPoint" />
      </mxGeometry>
    </mxCell>
    <mxCell id="25" value="" style="endArrow=classic;html=1;entryDx=0;entryDy=0;entryPerimeter=0;" edge="1" parent="1" source="9" target="10">
      <mxGeometry width="50" height="50" relative="1" as="geometry">
        <mxPoint x="410" y="570" as="sourcePoint" />
        <mxPoint x="410" y="610" as="targetPoint" />
      </mxGeometry>
    </mxCell>
    <mxCell id="26" value="จริง" style="edgeStyle=orthogonalEdgeStyle;html=1;align=center;verticalAlign=bottom;endArrow=classic;" edge="1" parent="1" source="10" target="11">
      <mxGeometry relative="1" as="geometry">
        <mxPoint x="340" y="660" as="sourcePoint" />
        <Array as="points">
          <mxPoint x="320" y="660" />
          <mxPoint x="320" y="660" />
        </Array>
      </mxGeometry>
    </mxCell>
    <mxCell id="27" value="" style="endArrow=classic;html=1;" edge="1" parent="1" source="11" target="12">
      <mxGeometry width="50" height="50" relative="1" as="geometry">
        <mxPoint x="200" y="685" as="sourcePoint" />
        <mxPoint x="200" y="760" as="targetPoint" />
      </mxGeometry>
    </mxCell>
    <mxCell id="28" value="" style="endArrow=classic;html=1;entryDx=0;entryDy=0;entryPerimeter=0;" edge="1" parent="1" source="12" target="16">
      <mxGeometry width="50" height="50" relative="1" as="geometry">
        <mxPoint x="200" y="810" as="sourcePoint" />
        <mxPoint x="410" y="1050" as="targetPoint" />
        <Array as="points">
          <mxPoint x="200" y="1030" />
          <mxPoint x="410" y="1030" />
        </Array>
      </mxGeometry>
    </mxCell>
    <mxCell id="29" value="เท็จ" style="endArrow=classic;html=1;align=center;verticalAlign=bottom;entryDx=0;entryDy=0;entryPerimeter=0;" edge="1" parent="1" source="10" target="13">
      <mxGeometry relative="1" as="geometry">
        <mxPoint x="410" y="710" as="sourcePoint" />
        <mxPoint x="410" y="760" as="targetPoint" />
      </mxGeometry>
    </mxCell>
    <mxCell id="30" value="" style="endArrow=classic;html=1;" edge="1" parent="1" source="13" target="14">
      <mxGeometry width="50" height="50" relative="1" as="geometry">
        <mxPoint x="410" y="820" as="sourcePoint" />
        <mxPoint x="410" y="860" as="targetPoint" />
      </mxGeometry>
    </mxCell>
    <mxCell id="31" value="" style="endArrow=classic;html=1;" edge="1" parent="1" source="14" target="15">
      <mxGeometry width="50" height="50" relative="1" as="geometry">
        <mxPoint x="410" y="920" as="sourcePoint" />
        <mxPoint x="410" y="960" as="targetPoint" />
      </mxGeometry>
    </mxCell>
    <mxCell id="32" value="" style="endArrow=classic;html=1;" edge="1" parent="1" source="15" target="16">
      <mxGeometry width="50" height="50" relative="1" as="geometry">
        <mxPoint x="410" y="1010" as="sourcePoint" />
        <mxPoint x="410" y="1050" as="targetPoint" />
      </mxGeometry>
    </mxCell>
  </root>
</mxGraphModel>
